<mxfile host="app.diagrams.net" agent="Mozilla/5.0 (Windows NT 10.0; Win64; x64) AppleWebKit/537.36 (KHTML, like Gecko) Chrome/125.0.0.0 Safari/537.36" version="24.8.1">
  <diagram name="Page-1" id="_v1aBtlD4zSoQzSzA0pi">
    <mxGraphModel dx="1050" dy="522" grid="1" gridSize="10" guides="1" tooltips="1" connect="1" arrows="1" fold="1" page="1" pageScale="1" pageWidth="850" pageHeight="1100" math="0" shadow="0">
      <root>
        <mxCell id="0" />
        <mxCell id="1" parent="0" />
        <mxCell id="g6HyDpzUfLPLfcBK-rtP-1" value="START" style="rounded=1;whiteSpace=wrap;html=1;" vertex="1" parent="1">
          <mxGeometry x="360" y="40" width="160" height="60" as="geometry" />
        </mxCell>
        <mxCell id="g6HyDpzUfLPLfcBK-rtP-2" value="" style="endArrow=classic;html=1;rounded=0;exitX=0.5;exitY=1;exitDx=0;exitDy=0;" edge="1" parent="1" source="g6HyDpzUfLPLfcBK-rtP-1">
          <mxGeometry width="50" height="50" relative="1" as="geometry">
            <mxPoint x="400" y="300" as="sourcePoint" />
            <mxPoint x="400" y="200" as="targetPoint" />
          </mxGeometry>
        </mxCell>
        <mxCell id="g6HyDpzUfLPLfcBK-rtP-3" value="Promp which player starts between comp and player" style="rounded=1;whiteSpace=wrap;html=1;" vertex="1" parent="1">
          <mxGeometry x="320" y="200" width="160" height="80" as="geometry" />
        </mxCell>
        <mxCell id="g6HyDpzUfLPLfcBK-rtP-4" value="" style="endArrow=classic;html=1;rounded=0;exitX=0.5;exitY=1;exitDx=0;exitDy=0;" edge="1" parent="1" source="g6HyDpzUfLPLfcBK-rtP-3">
          <mxGeometry width="50" height="50" relative="1" as="geometry">
            <mxPoint x="400" y="300" as="sourcePoint" />
            <mxPoint x="400" y="360" as="targetPoint" />
          </mxGeometry>
        </mxCell>
        <mxCell id="g6HyDpzUfLPLfcBK-rtP-5" value="Select the maker to use between X or O" style="rounded=1;whiteSpace=wrap;html=1;" vertex="1" parent="1">
          <mxGeometry x="320" y="360" width="160" height="80" as="geometry" />
        </mxCell>
        <mxCell id="g6HyDpzUfLPLfcBK-rtP-6" value="" style="endArrow=classic;html=1;rounded=0;exitX=0.5;exitY=1;exitDx=0;exitDy=0;" edge="1" parent="1" source="g6HyDpzUfLPLfcBK-rtP-5">
          <mxGeometry width="50" height="50" relative="1" as="geometry">
            <mxPoint x="400" y="500" as="sourcePoint" />
            <mxPoint x="400" y="520" as="targetPoint" />
          </mxGeometry>
        </mxCell>
        <mxCell id="g6HyDpzUfLPLfcBK-rtP-31" value="Does the board still&amp;nbsp;&lt;div&gt;have clear spaces&lt;/div&gt;" style="rhombus;whiteSpace=wrap;html=1;" vertex="1" parent="1">
          <mxGeometry x="320" y="520" width="160" height="120" as="geometry" />
        </mxCell>
        <mxCell id="g6HyDpzUfLPLfcBK-rtP-32" value="" style="endArrow=none;html=1;rounded=0;exitX=0;exitY=0.5;exitDx=0;exitDy=0;" edge="1" parent="1" source="g6HyDpzUfLPLfcBK-rtP-31">
          <mxGeometry width="50" height="50" relative="1" as="geometry">
            <mxPoint x="400" y="610" as="sourcePoint" />
            <mxPoint x="200" y="580" as="targetPoint" />
          </mxGeometry>
        </mxCell>
        <mxCell id="g6HyDpzUfLPLfcBK-rtP-33" value="" style="endArrow=classic;html=1;rounded=0;" edge="1" parent="1">
          <mxGeometry width="50" height="50" relative="1" as="geometry">
            <mxPoint x="200" y="580" as="sourcePoint" />
            <mxPoint x="200" y="680" as="targetPoint" />
          </mxGeometry>
        </mxCell>
        <mxCell id="g6HyDpzUfLPLfcBK-rtP-34" value="Prompt the player to make a move? (e.g. 1,1 top left)" style="rounded=1;whiteSpace=wrap;html=1;" vertex="1" parent="1">
          <mxGeometry x="120" y="680" width="160" height="80" as="geometry" />
        </mxCell>
        <mxCell id="g6HyDpzUfLPLfcBK-rtP-35" value="" style="endArrow=classic;html=1;rounded=0;exitX=0.5;exitY=1;exitDx=0;exitDy=0;" edge="1" parent="1" source="g6HyDpzUfLPLfcBK-rtP-34" target="g6HyDpzUfLPLfcBK-rtP-36">
          <mxGeometry width="50" height="50" relative="1" as="geometry">
            <mxPoint x="400" y="810" as="sourcePoint" />
            <mxPoint x="200" y="840" as="targetPoint" />
          </mxGeometry>
        </mxCell>
        <mxCell id="g6HyDpzUfLPLfcBK-rtP-36" value="Is the board blank for&amp;nbsp;&lt;div&gt;the move to be made?&lt;/div&gt;" style="rhombus;whiteSpace=wrap;html=1;" vertex="1" parent="1">
          <mxGeometry x="120" y="840" width="160" height="120" as="geometry" />
        </mxCell>
        <mxCell id="g6HyDpzUfLPLfcBK-rtP-37" value="" style="endArrow=classic;html=1;rounded=0;exitX=0.5;exitY=1;exitDx=0;exitDy=0;" edge="1" parent="1" source="g6HyDpzUfLPLfcBK-rtP-36">
          <mxGeometry width="50" height="50" relative="1" as="geometry">
            <mxPoint x="400" y="1010" as="sourcePoint" />
            <mxPoint x="200" y="1000" as="targetPoint" />
          </mxGeometry>
        </mxCell>
        <mxCell id="g6HyDpzUfLPLfcBK-rtP-38" value="Replace the blank space with the player&#39;s maker" style="rounded=1;whiteSpace=wrap;html=1;" vertex="1" parent="1">
          <mxGeometry x="120" y="1000" width="160" height="40" as="geometry" />
        </mxCell>
        <mxCell id="g6HyDpzUfLPLfcBK-rtP-39" value="Yes" style="text;html=1;align=center;verticalAlign=middle;whiteSpace=wrap;rounded=0;" vertex="1" parent="1">
          <mxGeometry x="200" y="960" width="60" height="30" as="geometry" />
        </mxCell>
        <mxCell id="g6HyDpzUfLPLfcBK-rtP-40" value="" style="endArrow=none;html=1;rounded=0;exitX=0;exitY=0.5;exitDx=0;exitDy=0;" edge="1" parent="1" source="g6HyDpzUfLPLfcBK-rtP-36">
          <mxGeometry width="50" height="50" relative="1" as="geometry">
            <mxPoint x="400" y="810" as="sourcePoint" />
            <mxPoint x="80" y="900" as="targetPoint" />
          </mxGeometry>
        </mxCell>
        <mxCell id="g6HyDpzUfLPLfcBK-rtP-41" value="" style="endArrow=none;html=1;rounded=0;" edge="1" parent="1">
          <mxGeometry width="50" height="50" relative="1" as="geometry">
            <mxPoint x="80" y="900" as="sourcePoint" />
            <mxPoint x="80" y="720" as="targetPoint" />
          </mxGeometry>
        </mxCell>
        <mxCell id="g6HyDpzUfLPLfcBK-rtP-42" value="" style="endArrow=classic;html=1;rounded=0;entryX=0;entryY=0.5;entryDx=0;entryDy=0;" edge="1" parent="1" target="g6HyDpzUfLPLfcBK-rtP-34">
          <mxGeometry width="50" height="50" relative="1" as="geometry">
            <mxPoint x="80" y="720" as="sourcePoint" />
            <mxPoint x="450" y="760" as="targetPoint" />
          </mxGeometry>
        </mxCell>
        <mxCell id="g6HyDpzUfLPLfcBK-rtP-43" value="No" style="text;html=1;align=center;verticalAlign=middle;whiteSpace=wrap;rounded=0;" vertex="1" parent="1">
          <mxGeometry x="70" y="870" width="60" height="30" as="geometry" />
        </mxCell>
        <mxCell id="g6HyDpzUfLPLfcBK-rtP-44" value="" style="endArrow=classic;html=1;rounded=0;exitX=0.5;exitY=1;exitDx=0;exitDy=0;" edge="1" parent="1" source="g6HyDpzUfLPLfcBK-rtP-38">
          <mxGeometry width="50" height="50" relative="1" as="geometry">
            <mxPoint x="400" y="1110" as="sourcePoint" />
            <mxPoint x="200" y="1080" as="targetPoint" />
          </mxGeometry>
        </mxCell>
        <mxCell id="g6HyDpzUfLPLfcBK-rtP-45" value="Are there 3 same&amp;nbsp;&lt;div&gt;makers inline horizotal, vertical or diognal&lt;/div&gt;" style="rhombus;whiteSpace=wrap;html=1;" vertex="1" parent="1">
          <mxGeometry x="120" y="1080" width="160" height="120" as="geometry" />
        </mxCell>
        <mxCell id="g6HyDpzUfLPLfcBK-rtP-46" value="" style="endArrow=none;html=1;rounded=0;exitX=0.5;exitY=1;exitDx=0;exitDy=0;" edge="1" parent="1" source="g6HyDpzUfLPLfcBK-rtP-45">
          <mxGeometry width="50" height="50" relative="1" as="geometry">
            <mxPoint x="400" y="1010" as="sourcePoint" />
            <mxPoint x="200" y="1240" as="targetPoint" />
          </mxGeometry>
        </mxCell>
        <mxCell id="g6HyDpzUfLPLfcBK-rtP-47" value="" style="endArrow=none;html=1;rounded=0;" edge="1" parent="1">
          <mxGeometry width="50" height="50" relative="1" as="geometry">
            <mxPoint x="200" y="1240" as="sourcePoint" />
            <mxPoint x="520" y="1240" as="targetPoint" />
          </mxGeometry>
        </mxCell>
        <mxCell id="g6HyDpzUfLPLfcBK-rtP-48" value="Yes" style="text;html=1;align=center;verticalAlign=middle;whiteSpace=wrap;rounded=0;" vertex="1" parent="1">
          <mxGeometry x="200" y="1200" width="60" height="30" as="geometry" />
        </mxCell>
        <mxCell id="g6HyDpzUfLPLfcBK-rtP-50" value="" style="endArrow=none;html=1;rounded=0;exitX=1;exitY=0.5;exitDx=0;exitDy=0;" edge="1" parent="1" source="g6HyDpzUfLPLfcBK-rtP-45">
          <mxGeometry width="50" height="50" relative="1" as="geometry">
            <mxPoint x="350" y="1150" as="sourcePoint" />
            <mxPoint x="400" y="1140" as="targetPoint" />
          </mxGeometry>
        </mxCell>
        <mxCell id="g6HyDpzUfLPLfcBK-rtP-51" value="" style="endArrow=classic;html=1;rounded=0;entryX=0.5;entryY=1;entryDx=0;entryDy=0;" edge="1" parent="1" target="g6HyDpzUfLPLfcBK-rtP-31">
          <mxGeometry width="50" height="50" relative="1" as="geometry">
            <mxPoint x="400" y="1140" as="sourcePoint" />
            <mxPoint x="440" y="980" as="targetPoint" />
          </mxGeometry>
        </mxCell>
        <mxCell id="g6HyDpzUfLPLfcBK-rtP-52" value="No" style="text;html=1;align=center;verticalAlign=middle;whiteSpace=wrap;rounded=0;" vertex="1" parent="1">
          <mxGeometry x="320" y="1110" width="60" height="30" as="geometry" />
        </mxCell>
        <mxCell id="g6HyDpzUfLPLfcBK-rtP-53" value="Yes" style="text;html=1;align=center;verticalAlign=middle;whiteSpace=wrap;rounded=0;" vertex="1" parent="1">
          <mxGeometry x="240" y="550" width="60" height="30" as="geometry" />
        </mxCell>
        <mxCell id="g6HyDpzUfLPLfcBK-rtP-54" value="" style="endArrow=none;html=1;rounded=0;exitX=1;exitY=0.5;exitDx=0;exitDy=0;" edge="1" parent="1" source="g6HyDpzUfLPLfcBK-rtP-31">
          <mxGeometry width="50" height="50" relative="1" as="geometry">
            <mxPoint x="400" y="810" as="sourcePoint" />
            <mxPoint x="520" y="580" as="targetPoint" />
          </mxGeometry>
        </mxCell>
        <mxCell id="g6HyDpzUfLPLfcBK-rtP-55" value="" style="endArrow=none;html=1;rounded=0;" edge="1" parent="1">
          <mxGeometry width="50" height="50" relative="1" as="geometry">
            <mxPoint x="520" y="1240" as="sourcePoint" />
            <mxPoint x="520" y="580" as="targetPoint" />
          </mxGeometry>
        </mxCell>
        <mxCell id="g6HyDpzUfLPLfcBK-rtP-56" value="" style="endArrow=classic;html=1;rounded=0;" edge="1" parent="1">
          <mxGeometry width="50" height="50" relative="1" as="geometry">
            <mxPoint x="360" y="1240" as="sourcePoint" />
            <mxPoint x="360" y="1320" as="targetPoint" />
          </mxGeometry>
        </mxCell>
        <mxCell id="g6HyDpzUfLPLfcBK-rtP-57" value="No" style="text;html=1;align=center;verticalAlign=middle;whiteSpace=wrap;rounded=0;" vertex="1" parent="1">
          <mxGeometry x="520" y="610" width="60" height="30" as="geometry" />
        </mxCell>
        <mxCell id="g6HyDpzUfLPLfcBK-rtP-58" value="GAME OVER!" style="rounded=1;whiteSpace=wrap;html=1;" vertex="1" parent="1">
          <mxGeometry x="300" y="1320" width="120" height="60" as="geometry" />
        </mxCell>
      </root>
    </mxGraphModel>
  </diagram>
</mxfile>
